<?xml version="1.0" encoding="utf-8"?>
<!-- Generator: Adobe Illustrator 27.3.1, SVG Export Plug-In . SVG Version: 6.00 Build 0)  -->
<svg version="1.1" id="Layer_1" xmlns="http://www.w3.org/2000/svg" xmlns:xlink="http://www.w3.org/1999/xlink" x="0px" y="0px"
	 viewBox="0 0 100 100" style="enable-background:new 0 0 100 100;" xml:space="preserve">
<g>
	<path d="M50,12.6L50,12.6L50,12.6c10.3,0,19.7,4.2,26.4,10.9c6.8,6.8,10.9,16.1,10.9,26.4h0v0l0,0h0c0,10.3-4.2,19.7-10.9,26.4
		C69.7,83.2,60.3,87.4,50,87.4v0h0l0,0v0c-10.3,0-19.7-4.2-26.4-10.9C16.8,69.7,12.6,60.3,12.6,50h0v0v0h0
		c0-10.3,4.2-19.7,10.9-26.4C30.3,16.8,39.7,12.6,50,12.6L50,12.6L50,12.6L50,12.6z M56.2,38.5c1.2-1.2,1.1-3.1-0.1-4.3
		c-1.2-1.2-3.1-1.1-4.3,0.1L38.6,48l0,0c-1.2,1.2-1.1,3.1,0.1,4.3c0,0,0.1,0.1,0.1,0.1l13.1,13.4c1.2,1.2,3.1,1.2,4.3,0.1
		c1.2-1.2,1.2-3.1,0.1-4.3L45,50.1L56.2,38.5L56.2,38.5z"/>
</g>
</svg>
