<?xml version="1.0" encoding="utf-8"?>
<!-- Generator: Adobe Illustrator 27.3.1, SVG Export Plug-In . SVG Version: 6.00 Build 0)  -->
<svg version="1.1" id="Layer_1" xmlns="http://www.w3.org/2000/svg" xmlns:xlink="http://www.w3.org/1999/xlink" x="0px" y="0px"
	 viewBox="0 0 100 100" style="enable-background:new 0 0 100 100;" xml:space="preserve">
<style type="text/css">
	.st0{fill-rule:evenodd;clip-rule:evenodd;}
</style>
<g>
	<path class="st0" d="M62.8,25.4c-0.4-1.8-0.8-3.5-0.8-5.3c0-1.4,0.2-2.8,0.9-4.3c-0.9,1-1.7,2-2.6,3c-3.4,4.2-7.3,9.5-4.8,15.1
		c0.7,1.7,2,2.9,4,3.1c1.7,0.1,3.3-0.9,4-3.1C64.5,31,63.5,28.2,62.8,25.4z M74,35.6l3,0.9c5.2-4.7,9.6-9.7,13.9-14.9
		C85.3,26.7,80,31.5,74,35.6z M64.3,23.6l1,3c4-6.1,8.5-12,13.5-17.7C73.5,13.1,68.8,18.2,64.3,23.6z M75,21.4
		c-2.5,0.8-4.7,1.9-6.2,3.2c-1.2,1-2.1,2-2.5,3.1c-0.8,3.6,0.3,6.6,4.6,6.4c1,0,1.9-0.3,2.6-0.7c1.3-0.8,2.1-2.1,3-3.5
		c5.2-8,4.6-9.8,12.5-19.1C84,15.4,81.3,19.2,75,21.4z M20.4,74.7c-2.1,4.1-4.3,7.9-6.9,11.6l1.3,3.4c3.5-4.6,7.4-7.4,11.8-9.8
		L20.4,74.7z M44.7,76.3c-1.8-0.1-3.5-0.6-5.2-1.2c-2.7-0.9-5.5-2.1-8.4-1.3c-2.3,0.6-3.4,2.1-3.4,3.8c0,1.9,1.2,3.3,2.8,4.2
		c5.5,2.9,11-0.6,15.4-3.7c1.1-0.8,2.1-1.5,3.2-2.3C47.6,76.3,46.1,76.4,44.7,76.3z M55.2,66.5c-0.5,0-0.9,0-1.4,0
		c-1.8-0.1-3.5-0.6-5.3-1.1c-2.8-0.8-5.5-1.9-8.5-1.1c-2.2,0.6-3.3,2.2-3.3,3.9c0.1,1.9,1.3,3.3,2.9,4.1c5.6,2.7,11-0.9,15.3-4.2
		c0.4-0.3,0.7-0.5,1.1-0.8L55.2,66.5z M46.3,57.1c-0.8,0.8-1.2,1.9-1.1,2.9c0.1,1.9,1.4,3.2,3.1,3.9c1.8,0.8,3.5,0.9,5.1,0.6
		L46.3,57.1z M71.1,48.4c-1.8-0.1-3.5-0.5-5.3-1c-2.3-0.6-4.5-1.5-6.9-1.3l7.4,7.8c2.1-1,4.1-2.5,6-3.9c1-0.8,2.1-1.6,3.1-2.5
		C74,48.3,72.5,48.5,71.1,48.4z M79.7,38.8c-1.8,0.1-3.6-0.2-5.3-0.5c-2.8-0.5-5.7-1.3-8.6-0.2c-2.2,0.9-3.1,2.5-2.9,4.2
		c0.3,1.9,1.6,3.1,3.3,3.8c5.8,2.2,10.8-2,14.8-5.7c1-0.9,1.9-1.8,2.9-2.7C82.6,38.4,81.1,38.8,79.7,38.8z M26.5,61.6
		c-0.5-1.7-1-3.5-1.1-5.2c-0.1-1.4,0.1-2.9,0.7-4.3c-0.8,1-1.6,2.1-2.4,3.1c-3.2,4.4-6.8,9.8-4,15.4c0.8,1.6,2.2,2.8,4.1,2.9
		c1.7,0,3.3-1.1,3.9-3.3C28.4,67.1,27.3,64.3,26.5,61.6z M35.6,52.6c-0.5-1.7-1-3.5-1.1-5.2c0-0.8,0-1.7,0.1-2.5l-0.5-0.5
		c-0.5,0.6-0.9,1.2-1.4,1.8c-3.2,4.4-6.8,9.8-4,15.4c0.8,1.6,2.2,2.8,4.1,2.9c1.7,0,3.3-1.1,3.9-3.3C37.5,58.1,36.4,55.3,35.6,52.6z
		 M36.9,47.2c-0.2,1.7,0,3.5,0.9,5.3c0.8,1.6,2.2,2.8,4.1,2.9c0.7,0,1.5-0.2,2.1-0.6L36.9,47.2z M53.6,34.4c-0.5-1.7-1-3.5-1.1-5.2
		c-0.1-1.4,0.1-2.8,0.7-4.3c-0.8,1-1.6,2.1-2.4,3.1c-1.3,1.8-2.7,3.7-3.6,5.8L55,42C55.3,39.3,54.3,36.9,53.6,34.4z"/>
</g>
<g>
	<path d="M83,89.1c-1.5,0-2.9-0.6-4-1.7L15.5,20.6c-2.1-2.2-2-5.7,0.2-7.8c2.2-2.1,5.7-2,7.8,0.2L87,79.8c2.1,2.2,2,5.7-0.2,7.8
		C85.7,88.6,84.4,89.1,83,89.1z"/>
</g>
</svg>
