<?xml version="1.0" encoding="UTF-8"?><svg id="a" xmlns="http://www.w3.org/2000/svg" viewBox="0 0 100 100"><defs><style>.b{fill-rule:evenodd;}</style></defs><path class="b" d="m35.23,67.9h-.02s.03-.04.04-.05c.07-.2.2-.36.36-.48l27.22-23.65c.12-.29.26-.57.42-.85,1.06-1.84,2.83-3.01,4.77-3.37-1.16-2.04-2.77-3.76-4.65-4.76h0l-.08-.04c-.63-.33-.88-1.11-.54-1.74.33-.63,1.11-.88,1.74-.54l.08.04h0c.56.28,1.09.62,1.61,1,2.01,1.51,3.67,3.69,4.78,6.13.61.15,1.21.4,1.79.73,1.25.72,2.19,1.77,2.77,2.97h0s.03.07.03.07h0c.45.99.67,2.07.63,3.15,4.09,2.09,7.43,5.2,10.01,9.19.1.1.18.22.23.36h0s.03.05.03.05h0c2.37,5.2,3.4,10.23,3.36,15.1-.04,4.91-1.18,9.66-3.14,14.28-.14.33-.44.54-.78.58h0l-49.95,5.63c-.53.06-1-.32-1.06-.85,0-.03,0-.07,0-.1h0c0-13.11.15-16.42.33-22.63,0-.07.01-.15.04-.23h0Zm29.74-24.34h0s0,.01,0,.01h0s0,0,0,0h0s0,.01,0,.01h0s0,.01,0,.01h0s0,.02,0,.02h0s0,.01,0,.01h0s0,0,0,0h0s0,.02,0,.02h0s0,.01,0,.01h0s0,.02,0,.02h0s0,.01,0,.01h0s0,0,0,0h0s0,.02,0,.02h0s0,.01,0,.01h0s0,0,0,0h0s0,.02,0,.02h0s-.02.04-.02.04v.02s-.01,0-.01,0v.03s-.02,0-.02,0v.02s-.02.03-.02.03h0v.03s-.02.02-.02.02h0s-.01.03-.01.03h0s0,.03,0,.03v.03s-.01,0-.01,0v.02s-.03.02-.03.02h0s-.01.03-.01.03h0s0,.03,0,.03v.03s-.02,0-.02,0v.02s-.04.08-.04.08h0s-.01.04-.01.04h0s0,.03,0,.03v.03h-.01v.03s-.02.02-.02.02h0s0,.04,0,.04h0s-.02.06-.02.06h0s0,.03,0,.03l-.02.06h0s0,.03,0,.03v.03s0,0,0,0v.02s-.02.03-.02.03h0s-.02.05-.02.05v.02s0,.01,0,.01v.03s0,0,0,0v.02s-.01.03-.01.03h0v.03s-.01.02-.01.02v.04s0,0,0,0v.02s-.01.03-.01.03h0v.03s-.01.02-.01.02h0s0,.04,0,.04h0s0,.03,0,.03v.03s0,0,0,0v.03s-.02.03-.02.03h0s0,.03,0,.03h0s0,.03,0,.03v.03s0,0,0,0v.02s0,.03,0,.03h0s0,.03,0,.03v.02h0s0,.04,0,.04h0s0,.03,0,.03v.03h0v.03s0,.02,0,.02h0s0,.04,0,.04c-.05.47-.04.94.03,1.4h0c.26,1.44,1.12,2.75,2.48,3.54,2.45,1.41,5.57.58,6.98-1.87.11-.19.21-.39.3-.59v-.04s.02,0,.02,0v-.03s.02-.04.02-.04h0s.01-.04.01-.04v-.04h.01v-.04s.03-.03.03-.03h0s.01-.04.01-.04v-.03s.01,0,.01,0v-.04s.02-.02.02-.02v-.02s.02-.04.02-.04v-.02s0-.02,0-.02v-.04s.02,0,.02,0v-.03s.02-.04.02-.04h0s0-.04,0-.04v-.04h0v-.04s.02-.03.02-.03h0s0-.04,0-.04v-.03s0,0,0,0v-.04s.01-.02.01-.02v-.02s.01-.04.01-.04h0s0-.04,0-.04v-.04s0,0,0,0v-.03s0-.04,0-.04h0s0-.04,0-.04v-.04h0v-.04s0-.03,0-.03h0s0-.04,0-.04v-.03s0-.01,0-.01v-.04s0-.02,0-.02v-.06s0-.01,0-.01v-.06s0,0,0,0v-.18h0v-.07h0v-.08h0v-.13h0v-.08h0v-.08h0v-.08h0v-.04s0-.03,0-.03h0s0-.05,0-.05v-.03s0-.01,0-.01v-.04s0-.02,0-.02v-.06c-.07-.53-.21-1.04-.44-1.52h0l-.02-.05h0c-.44-.89-1.12-1.66-2.04-2.19l-.04-.02-.04-.02h-.03s-.02-.02-.02-.02l-.04-.02-.04-.02h0s-.03-.02-.03-.02l-.04-.02-.04-.02h0s-.09-.05-.09-.05h-.02s-.02-.02-.02-.02l-.04-.02-.04-.02h-.04s-.04-.03-.04-.03h-.03s-.01-.02-.01-.02l-.05-.02-.04-.02h-.01s-.03-.01-.03-.01h-.05s-.04-.03-.04-.03h-.05s-.05-.03-.05-.03h-.03s-.02-.01-.02-.01h-.05s-.04-.03-.04-.03h0s-.04-.01-.04-.01h-.05s-.04-.02-.04-.02h-.06s-.05-.02-.05-.02h-.02s-.02,0-.02,0h-.05s-.05-.02-.05-.02h-.05s-.05-.02-.05-.02h-.03s-.01,0-.01,0h-.05s-.05-.02-.05-.02h-.1s-.04-.01-.04-.01h-.05s-.05,0-.05,0h-.1s-.05,0-.05,0h-.05s-.09,0-.09,0h-.59s0,0,0,0h-.05c-1.53.13-2.99.94-3.88,2.32h0Zm-2.6,3.71l-23.09,19.3,44.1-11.03c-2.21-2.1-4.87-4.45-7.84-6.35-.09.19-.18.37-.29.55-1.92,3.32-6.17,4.46-9.49,2.54-1.85-1.07-3.02-2.86-3.37-4.81h0l-.03-.21h0Zm9.63,1.38c.19-.13.24-.39.12-.59-.13-.19-.39-.25-.58-.12-.48.32-.97.56-1.48.72s-1.02.25-1.56.26c-.23,0-.42.19-.41.43s.19.42.43.41c.61-.01,1.21-.11,1.79-.3.58-.18,1.15-.46,1.69-.82h0Zm-34.78,24.41c.34.17.68.35,1.01.53h0c4.47,2.43,6.72.25,9.05-2,2.6-2.52,5.3-5.13,11.1-1.98,1.03.56,2.05,1.11,3.21,1.13s2.51-.48,4.22-2.03l.13-.15c4.98-5.07,7.79-3.55,10.65-2,4.47,2.43,6.72.25,9.05-2,.37-.36.74-.72,1.12-1.06-.47-1.92-1.13-3.87-1.99-5.85-27.95,6.66-19.73,4.71-47.48,11.31-.01.39-.04,1.97-.07,4.1h0Zm50.01-7.2c-.19.18-.38.37-.58.56-2.6,2.52-5.3,5.13-11.1,1.98-1.03-.56-2.05-1.11-3.21-1.13-1.17-.02-2.51.48-4.21,2.03l-.13.15c-4.98,5.07-7.79,3.55-10.65,2h0c-4.47-2.42-6.72-.25-9.04,2-2.6,2.52-5.3,5.13-11.1,1.98l-.02-.02-.1,6.87c.56.25,1.1.54,1.64.84h0c4.47,2.43,6.72.26,9.05-2,2.6-2.52,5.3-5.13,11.1-1.98,1.03.56,2.05,1.11,3.22,1.13,1.17.02,2.51-.48,4.22-2.03l.12-.14c4.98-5.08,7.79-3.55,10.65-2,4.47,2.42,6.72.25,9.05-2,.48-.47.97-.94,1.48-1.37.03-.49.04-.99.05-1.49.01-1.77-.12-3.56-.43-5.37h0Zm.05,9.98l-.12.11c-2.6,2.52-5.3,5.13-11.1,1.98-1.03-.56-2.05-1.11-3.21-1.13-1.17-.02-2.51.48-4.22,2.03l-.13.15c-4.98,5.07-7.79,3.55-10.65,2-4.48-2.43-6.73-.25-9.05,2-2.6,2.52-5.3,5.13-11.1,1.98h0c-.22-.13-.44-.24-.66-.36-.03,2.37-.05,4.25-.05,4.93l47.92-5.39c1.12-2.73,1.93-5.5,2.37-8.31h0Z"/><path d="m35.16,13.63c.36-.33.92-.31,1.25.05.33.36.31.92-.05,1.25-1.58,1.46-2.75,3.22-3.44,5.34-.64,1.95-.89,4.2-.69,6.8.33-.03.66-.07.98-.12.59-.1,1.19-.25,1.79-.46h0s.06-.02.09-.03c1.99-.45,3.78-.57,5.39-.41,1.65.16,3.1.61,4.4,1.31,4.2,2.26,6.24,5.58,6.84,9.3.72,4.47-.71,9.48-2.96,13.79-1.06,2.03-2.8,4.77-4.82,7.02-1.55,1.72-3.28,3.16-5.03,3.82-1.41.53-2.78.68-4.1.55-1.16-.11-2.28-.45-3.36-.92-1.42.71-2.9,1.14-4.47,1.1-1.73-.04-3.53-.62-5.42-1.97h0s-.05-.04-.07-.06c-1.88-1.64-3.42-3.36-4.73-5.11-1.31-1.73-2.4-3.5-3.39-5.24-2.02-3.53-2.8-7.35-2.56-10.85.2-2.95,1.13-5.7,2.65-7.9,1.55-2.23,3.71-3.9,6.35-4.65,2.22-.63,4.75-.61,7.54.27h0c.68.21,1.36.37,2.04.47.35.06.7.09,1.05.12-.11-1.64-.07-3.16.13-4.57-2.28,1.29-4.39,1.78-6.35,1.54-4.78-.59-7.1-4.56-8.98-8.46l2.56-.27c6.72-1.03,10.74,1.28,13.05,5.68.1-.43.22-.85.36-1.26.79-2.42,2.13-4.44,3.93-6.1h0Zm-17.79,32.17c-.15-.46.09-.97.56-1.12.46-.15.97.09,1.12.56.5,1.5,1.25,2.84,2.18,4.07.95,1.24,2.09,2.37,3.37,3.41.38.31.44.87.13,1.25-.31.38-.87.44-1.25.13-1.38-1.13-2.62-2.35-3.66-3.71-1.05-1.38-1.89-2.89-2.46-4.59h0Zm14.14-16.91c-.05,0-.1,0-.15,0-.74,0-1.49-.06-2.23-.17-.77-.12-1.53-.3-2.29-.53h0s0,0,0,0c-2.44-.77-4.64-.79-6.53-.25-2.23.63-4.05,2.05-5.37,3.95-1.34,1.93-2.16,4.37-2.33,7.01-.22,3.18.49,6.65,2.33,9.86.95,1.67,2.01,3.37,3.27,5.04,1.24,1.65,2.69,3.26,4.43,4.8,1.57,1.12,3.03,1.61,4.4,1.64,1.38.03,2.71-.4,3.99-1.1.26-.14.55-.14.8-.02h0c1.04.49,2.1.83,3.18.95,1.06.11,2.16-.01,3.3-.44,1.45-.55,2.95-1.82,4.33-3.35,1.92-2.13,3.57-4.73,4.57-6.65,2.1-4.01,3.43-8.63,2.78-12.69-.51-3.19-2.27-6.05-5.92-8-1.1-.59-2.33-.97-3.73-1.1-1.42-.14-3-.03-4.77.36-.68.23-1.36.4-2.04.52-.66.1-1.33.16-2,.17h0Z"/></svg>