<?xml version="1.0" encoding="UTF-8"?><svg id="a" xmlns="http://www.w3.org/2000/svg" viewBox="0 0 100 100"><defs><style>.c{fill-rule:evenodd;}</style></defs><path d="m40.5,19.25v3.56c.07.45,1.01,1.07,2.18,1.86,3.48,2.32,8.52,5.69,6.33,15.25-.09.36-.33.66-.67.81-.29.22-.48.54-.53.9-.09.36-.11.73-.07,1.09.03.32.11.63.25.91.08.15.15.25.21.27.54.13.93.61.93,1.17h0v21.18c0,.49-.3.93-.75,1.12-.16.09-.29.24-.37.41-.2.42-.29.87-.27,1.33,0,.51.1,1.02.3,1.49.08.25.24.46.45.61.4.2.66.61.67,1.07h0v13.11c0,.09,0,.17,0,.26-.27,2.23-1.78,4.12-3.9,4.86-.79.28-1.63.39-2.46.33-.83-.05-1.64-.28-2.37-.67-.6-.34-1.13-.79-1.55-1.33-.73.77-1.65,1.35-2.67,1.68-1.73.57-3.6.57-5.33,0-1-.33-1.91-.9-2.63-1.67-.42.52-.95.96-1.54,1.28-.73.39-1.53.62-2.36.67h0c-.82.05-1.65-.06-2.43-.33h0c-2.15-.75-3.68-2.68-3.91-4.95,0-.05,0-.11,0-.16h0v-13.04c0-.46.26-.88.67-1.09.19-.16.33-.36.42-.59.2-.47.3-.98.3-1.49.01-.46-.08-.92-.27-1.33-.09-.18-.23-.33-.41-.43-.5-.15-.84-.61-.84-1.13v-21.18c0-.56.38-1.04.92-1.17.08-.07.14-.16.18-.26.14-.29.22-.6.25-.91.03-.37.01-.73-.07-1.09-.06-.37-.27-.7-.57-.92-.31-.17-.53-.46-.61-.8h0c-2.19-9.55,2.85-12.93,6.33-15.25,1.19-.8,2.14-1.43,2.18-1.87h0v-3.53c-.37-.06-.71-.23-.98-.49,0-.04-.07-.08-.1-.12-.27-.31-.41-.71-.41-1.13v-5.11c0-.42.08-.84.25-1.23.15-.39.38-.74.67-1.04l.07-.08c.63-.63,1.48-.98,2.37-.98h10.31c.44,0,.87.09,1.27.25.4.17.77.41,1.08.73l.08.09c.58.61.9,1.42.9,2.27v5.11c0,.47-.19.91-.53,1.24h0c-.26.26-.6.44-.97.49h0Zm-20.22,43.16h26.45v-13.47h-26.45v13.47Zm26.45,2.36h-26.45v.83c.35.3.63.66.84,1.06.38.77.57,1.63.55,2.49,0,.84-.17,1.68-.5,2.45-.21.49-.51.93-.89,1.3v12.44c.15,1.34,1.05,2.47,2.31,2.93.47.17.98.23,1.48.2h0c.49-.03.96-.16,1.39-.39.93-.53,1.47-1.55,1.37-2.62h0c-.02-.66.51-1.21,1.17-1.23.66-.02,1.21.51,1.23,1.17h0v.14c.1,1.33,1.03,2.45,2.33,2.79.61.2,1.26.31,1.91.3.65,0,1.3-.1,1.91-.31,1.3-.45,2.32-1.38,2.39-2.79v-.13c-.02-.66.5-1.22,1.16-1.23.66-.02,1.22.5,1.23,1.16,0,.05,0,.1,0,.16-.1,1.07.44,2.1,1.37,2.62.42.23.89.36,1.37.39.51.03,1.03-.03,1.51-.2,1.26-.46,2.15-1.59,2.31-2.93v-12.47c-.38-.37-.69-.81-.89-1.3-.33-.78-.5-1.61-.5-2.45-.02-.86.17-1.71.55-2.49.21-.4.5-.76.85-1.06v-.83h.01Zm-26.45-18.19h26.45v-.79c-.35-.28-.64-.64-.84-1.04-.28-.56-.46-1.16-.51-1.78-.07-.63-.03-1.27.12-1.89.19-.84.64-1.59,1.3-2.15,1.56-7.6-2.56-10.35-5.42-12.26-1.75-1.17-3.13-2.1-3.25-3.71,0-.05,0-.11,0-.16v-3.52h-9.21v3.52h0c-.03,1.7-1.45,2.67-3.25,3.85-2.86,1.91-6.98,4.67-5.43,12.27.65.56,1.1,1.32,1.27,2.17.15.62.19,1.26.13,1.9-.06.62-.23,1.22-.51,1.78-.2.4-.49.76-.84,1.04v.79h0Zm7.14-29.71h12.16v-4.46c0-.12-.02-.24-.07-.35-.04-.1-.1-.19-.17-.27l-.04-.05c-.17-.18-.42-.28-.67-.27h-10.29c-.25,0-.49.09-.67.27h0c-.09.08-.15.19-.19.3-.04.11-.07.22-.07.34v4.49Z"/><g id="b"><path class="c" d="m67.95,35.04c-1.32-.08-3.09.39-4.04,1.2-1.06.91-.66,1.39-.12,2.34l1.07,1.73c-1.95.14-3.76.37-5.26.67-2.29.46-3.91,1.16-4.31,2.03-.12.25-.1.53-.11.8l-.13,3.13s-.07.1-.1.16l-1.56,4.28c-.05.14-.05.29,0,.43v31.46c0,.24.13.46.33.57.42.28.87.54,1.34.79,2.42,8.59,26.35,8.2,27.7.02.5-.26.97-.54,1.39-.83.18-.13.28-.33.28-.54v-31.46c.05-.14.04-.3-.02-.45l-1.48-3.97s0-.09,0-.13l-.36-3.17c-.05-.46-.02-.95-.31-1.33-.57-.75-2.09-1.36-4.16-1.77-2-.4-4.56-.68-7.25-.77l-.97-3.36c-.38-1.22-.38-1.71-1.92-1.81h0Zm-2.3,6.56l1.11,1.79c1.39,1.77,4.99.44,4.57-1.47l-.1-.36c2.46.1,4.78.37,6.6.73,1.42.28,2.5.58,3.01.84.49.25.39.41-.07.62-.5.21-1.44.42-2.67.64-4.97.87-13.49.86-18.49,0-1.57-.27-2.69-.55-3-.8-.12-.09-.12-.18-.01-.28.31-.3,1.54-.66,3.26-1.01,1.62-.32,3.64-.57,5.8-.69Zm-8.38,5.67c2.87.82,7.19,1.25,11.57,1.25,4.8,0,9.65-.53,12.7-1.63l-.23-2.02c-.76.38-1.86.67-3.2.89-5.09.83-13.67.82-18.74-.06-1.2-.21-2.2-.48-2.92-.83l-.08,1.95c.2.16.5.31.9.45h0Zm24.58,36.3c.07-.03.15-.05.22-.06.36-.18.7-.38,1.02-.58v-30.35c-6.81,2.23-22.83,2.03-28.38.07v30.28c6.74,4.25,20.24,3.84,27.14.65Zm-16.91-45.91c0,.17.03.35.12.56.34.85,1,.91,1.87.82,1.13-.13,2.3-.74,2.08-1.49-.19-.54-.29-.75-.48-.99-.61-.73-3.56-.11-3.58,1.09Z"/></g></svg>