<?xml version="1.0" encoding="UTF-8"?><svg id="a" xmlns="http://www.w3.org/2000/svg" viewBox="0 0 100 100"><defs><style>.b{fill:none;stroke:#000;stroke-linecap:round;stroke-linejoin:round;stroke-width:5px;}</style></defs><path class="b" d="m15,30v-10c0-2.76,2.24-5,5-5h10"/><path class="b" d="m30,85h-10c-2.76,0-5-2.24-5-5v-10"/><path class="b" d="m85,70v10c0,2.76-2.24,5-5,5h-10"/><path class="b" d="m70,15h10c2.76,0,5,2.24,5,5v10"/><line class="b" x1="35" y1="32" x2="35" y2="42"/><path class="b" d="m50.88,37v15c0,2.76-2.24,5-5,5h-1.75"/><line class="b" x1="65" y1="32" x2="65" y2="42"/><path class="b" d="m37.5,67l1.36.54c7.15,2.86,15.13,2.86,22.28,0l1.36-.54"/></svg>