<?xml version="1.0" encoding="utf-8"?>
<!-- Generator: Adobe Illustrator 27.3.1, SVG Export Plug-In . SVG Version: 6.00 Build 0)  -->
<svg version="1.1" id="Layer_1" xmlns="http://www.w3.org/2000/svg" xmlns:xlink="http://www.w3.org/1999/xlink" x="0px" y="0px"
	 viewBox="0 0 100 100" style="enable-background:new 0 0 100 100;" xml:space="preserve">
<g>
	<path d="M74.3,9.2c0.6-0.6,1.6-0.7,2.2-0.1c0.6,0.6,0.7,1.6,0.1,2.2L63.9,25l0,0c-1.6,1.9-2.6,3.6-3.1,5.2
		c-0.4,1.4-0.4,2.7,0.3,3.8c0.3,0.6,0.2,1.3-0.2,1.8l0,0l-6,6.5c-0.6-0.6-1.1-1.2-1.4-1.5c-0.1-0.2-0.3-0.4-0.5-0.5l0,0
		c-0.1-0.1-0.2-0.2-0.3-0.3l5.2-5.6c-0.6-1.6-0.6-3.3,0-5.2c0.6-2,1.9-4.1,3.7-6.3c0-0.1,0.1-0.1,0.1-0.2L74.3,9.2L74.3,9.2
		L74.3,9.2z M47.1,46c-0.6-0.6-0.5-1.6,0.1-2.2c0.6-0.6,1.6-0.5,2.2,0.1c6.4,7.1,26.1,28.3,31.6,36.2c7.2,10.2-4,13.4-7.7,9.7
		c-9.3-8.9-28.9-31.8-37.5-41.4c-3.1,1.3-6.1,1.5-9.2,0.7c-3.3-0.9-6.5-3.1-9.7-6.5l0,0c-2.5-2.6-4.4-5.2-5.8-7.7
		c-1.4-2.6-2.3-5.2-2.6-7.8c-0.3-2.8-0.1-5.3,0.7-7.6c0.9-2.7,2.4-5,4.5-6.6c2-1.7,4.6-2.8,7.4-3.1c2.3-0.3,4.9,0,7.5,0.8
		c3.6,1.2,7.9,4.1,11.4,7.9c2.6,2.8,4.8,6,6.1,9.4c1.4,3.5,1.8,7.1,0.7,10.5c-0.7,2-1.8,3.9-3.7,5.6c-0.6,0.6-1.6,0.5-2.2-0.1
		c-0.6-0.6-0.5-1.6,0.1-2.2c1.4-1.3,2.3-2.8,2.8-4.3c0.9-2.6,0.5-5.5-0.6-8.4C42,26,40,23,37.6,20.5c-3.2-3.4-6.9-6-10.1-7.1
		c-2.2-0.7-4.3-0.9-6.2-0.7c-2.2,0.3-4.2,1.1-5.8,2.4c-1.6,1.3-2.8,3.1-3.5,5.2c-0.6,1.9-0.8,4-0.5,6.3c0.3,2.2,1,4.4,2.3,6.7
		c1.3,2.3,3.1,4.7,5.4,7.1l0,0c2.9,3,5.6,4.8,8.3,5.6c2.6,0.7,5.2,0.4,7.9-0.9c0.6-0.4,1.4-0.2,1.9,0.3c8.4,9.4,28.9,33.2,38,42
		c3.9,1.6,6.1-0.4,4.2-3.9C76.6,78.1,51.4,50.8,47.1,46L47.1,46L47.1,46z M38.9,59.6L19.1,81c0,0-0.1,0.1-0.1,0.1
		c-2.9,3.1,2.2,7.7,5.4,4.6L43.6,65l2.1,2.3L26.6,87.9l0,0c0,0-0.1,0.1-0.1,0.1c-1.1,1-2.3,1.6-3.4,1.8c-1.2,0.3-2.4,0.1-3.5-0.4
		c-0.2-0.1-0.4-0.2-0.5-0.3l-2.7-2.5l0,0c0,0-0.1-0.1-0.1-0.1c-1.1-1.2-1.6-2.5-1.4-3.9c0.1-1.3,0.8-2.6,2.1-3.8l20-21.6L38.9,59.6
		L38.9,59.6z M59.6,47.6l1.2-1.3c0.6-0.6,1.6-0.7,2.2-0.1c0.6,0.6,0.7,1.6,0.1,2.2l-1.4,1.5L59.6,47.6L59.6,47.6z M79.2,13.7
		c0.6-0.6,1.6-0.7,2.2-0.1c0.6,0.6,0.7,1.6,0.1,2.2L70.3,27.9c-0.6,0.6-1.6,0.7-2.2,0.1c-0.6-0.6-0.7-1.6-0.1-2.2L79.2,13.7
		L79.2,13.7L79.2,13.7z M84,18.2c0.6-0.6,1.6-0.7,2.2-0.1c0.6,0.6,0.7,1.6,0.1,2.2l-11.1,12c-0.6,0.6-1.6,0.7-2.2,0.1
		s-0.7-1.6-0.1-2.2L84,18.2L84,18.2L84,18.2z M89,22.8c0.6-0.6,1.6-0.7,2.2-0.1c0.6,0.6,0.7,1.6,0.1,2.2L78.6,38.7
		c0,0-0.1,0.1-0.1,0.1c-2.9,2.8-5.6,4.4-8.3,4.8c-2.9,0.5-5.5-0.3-7.9-2.4c-0.6-0.6-0.7-1.5-0.1-2.2c0.6-0.6,1.5-0.7,2.2-0.1
		c1.7,1.5,3.4,2,5.3,1.7c2-0.3,4.2-1.7,6.7-4l0,0L89,22.8L89,22.8L89,22.8z"/>
</g>
</svg>
