<?xml version="1.0" encoding="UTF-8"?><svg id="a" xmlns="http://www.w3.org/2000/svg" viewBox="0 0 100 100"><path d="m45.41,86.56c1.2,0,2.18.97,2.18,2.17s-.97,2.17-2.18,2.17h-27.21c-1.39,0-2.66-.57-3.58-1.48-.92-.91-1.48-2.17-1.48-3.57V14.15c0-1.4.57-2.66,1.48-3.58.92-.92,2.18-1.48,3.58-1.48h62.12c1.39,0,2.66.57,3.58,1.48.92.92,1.48,2.18,1.48,3.58v35.92c0,1.2-.97,2.17-2.17,2.17s-2.17-.97-2.17-2.17V14.15c0-.19-.08-.37-.21-.5-.13-.13-.31-.21-.5-.21H18.19c-.19,0-.37.08-.51.21-.13.14-.21.31-.21.51v71.7c0,.19.08.37.21.5.13.13.31.21.51.21h27.21Zm-9.67-38.9c-.41-.71-.11-2.75.77-3.47,2.53-1.48,6.02-1.02,8.46-2.72.14-.21.29-.52.45-.86.22-.51.43-1.06.55-1.44-.54-.64-1.01-1.36-1.44-2.06l-1.46-2.33c-.53-.8-.81-1.53-.83-2.13,0-.28.04-.54.15-.77.11-.24.27-.43.51-.59.11-.07.23-.13.35-.18-.1-1.27-.13-2.86-.07-4.19.03-.31.09-.63.18-.95.37-1.34,1.31-2.42,2.48-3.16.64-.41,1.34-.72,2.08-.93.47-.13-.4-1.62.09-1.67,2.33-.24,6.09,1.88,7.72,3.64.81.88,1.33,2.05,1.44,3.6l-.09,3.8h0c.41.13.67.38.77.8.12.47,0,1.11-.41,2h0s-.01.03-.03.05l-1.67,2.75c-.61,1.01-1.24,2.02-2.05,2.82.07.11.15.21.23.32.33.49.67.97,1.09,1.4.01.01.03.03.03.05,1.92,1.36,6.61,1.69,8.4,2.69l.07.04c.93.71,1.21,2.75.79,3.46h-28.54v.02Zm45.51,14.06c-.35-.34-.76-.5-1.23-.49-.47,0-.87.19-1.2.54l-2.7,2.81,7.57,7.31,2.72-2.84c.33-.33.46-.76.45-1.23,0-.46-.17-.89-.51-1.2l-5.12-4.91h0Zm-11.82,24.72c-1,.32-2,.65-2.99.97-1,.33-2,.67-2.99,1-2.35.77-3.67,1.2-3.95,1.28-.27.08-.11-1.02.49-3.32l1.87-7.21h0l11.87-12.1,7.56,7.28-11.86,12.11h0Zm-35.16-13.86c-1.2,0-2.18-.99-2.18-2.2s.97-2.2,2.18-2.2h14.79c1.2,0,2.18.99,2.18,2.2s-.97,2.2-2.18,2.2h-14.79Zm0-13.78c-1.2,0-2.17-.97-2.17-2.18s.97-2.17,2.17-2.17h29.33c1.2,0,2.17.97,2.17,2.17s-.97,2.18-2.17,2.18h-29.33Z"/></svg>