<?xml version="1.0" encoding="UTF-8"?>
<svg xmlns="http://www.w3.org/2000/svg" xmlns:xlink="http://www.w3.org/1999/xlink" viewBox="-14 -10 120 120" version="1.1">
<g id="surface1">
<path style=" stroke:none;fill-rule:evenodd;fill:rgb(0%,0%,0%);fill-opacity:1;" d="M 63.171875 64 L 85.28125 64 C 89.085938 64 92.203125 67.105469 92.203125 70.910156 L 92.203125 93 C 92.203125 96.796875 89.09375 99.902344 85.28125 99.902344 L 63.171875 99.902344 C 59.367188 99.902344 56.25 96.796875 56.25 93 L 56.25 70.910156 C 56.257812 67.113281 59.367188 64 63.171875 64 Z M 49.445312 92.074219 C 50.875 92.074219 52.03125 93.226562 52.03125 94.660156 C 52.03125 96.089844 50.875 97.242188 49.445312 97.242188 L 6.015625 97.242188 C 4.355469 97.242188 2.859375 96.570312 1.757812 95.480469 C 0.675781 94.382812 0 92.886719 0 91.226562 L 0 6.007812 C 0 4.347656 0.675781 2.855469 1.765625 1.757812 C 2.859375 0.675781 4.363281 0 6.015625 0 L 79.949219 0 C 81.609375 0 83.109375 0.683594 84.199219 1.765625 C 85.292969 2.855469 85.96875 4.359375 85.96875 6.015625 L 85.96875 55.796875 C 85.96875 57.226562 84.8125 58.382812 83.378906 58.382812 C 81.953125 58.382812 80.789062 57.226562 80.789062 55.796875 L 80.789062 6.007812 C 80.789062 5.78125 80.691406 5.570312 80.535156 5.414062 C 80.382812 5.261719 80.171875 5.164062 79.949219 5.164062 L 6.015625 5.164062 C 5.789062 5.164062 5.578125 5.261719 5.414062 5.40625 C 5.269531 5.570312 5.167969 5.773438 5.167969 6.007812 L 5.167969 91.210938 C 5.167969 91.4375 5.269531 91.652344 5.421875 91.804688 C 5.578125 91.960938 5.789062 92.058594 6.023438 92.058594 Z M 26.898438 45.828125 C 26.410156 44.984375 26.761719 42.5625 27.820312 41.707031 C 30.832031 39.953125 34.984375 40.496094 37.882812 38.472656 C 38.054688 38.21875 38.234375 37.855469 38.410156 37.457031 C 38.671875 36.855469 38.917969 36.195312 39.070312 35.746094 C 38.429688 34.992188 37.875 34.136719 37.34375 33.292969 L 35.601562 30.519531 C 34.96875 29.570312 34.632812 28.699219 34.617188 27.992188 C 34.609375 27.660156 34.667969 27.359375 34.789062 27.082031 C 34.917969 26.796875 35.113281 26.570312 35.390625 26.382812 C 35.523438 26.292969 35.660156 26.21875 35.816406 26.171875 C 35.699219 24.667969 35.660156 22.773438 35.734375 21.1875 C 35.765625 20.8125 35.847656 20.429688 35.945312 20.058594 C 36.394531 18.464844 37.507812 17.1875 38.890625 16.308594 C 39.65625 15.820312 40.488281 15.457031 41.359375 15.210938 C 41.914062 15.046875 40.886719 13.285156 41.457031 13.226562 C 44.226562 12.941406 48.710938 15.472656 50.640625 17.5625 C 51.609375 18.609375 52.21875 19.992188 52.351562 21.828125 L 52.246094 26.347656 C 52.726562 26.496094 53.035156 26.804688 53.164062 27.300781 C 53.304688 27.855469 53.15625 28.625 52.683594 29.683594 C 52.675781 29.699219 52.667969 29.722656 52.652344 29.738281 L 50.664062 33.007812 C 49.933594 34.210938 49.191406 35.414062 48.230469 36.367188 C 48.320312 36.496094 48.410156 36.617188 48.5 36.746094 C 48.890625 37.324219 49.289062 37.902344 49.800781 38.414062 C 49.820312 38.429688 49.835938 38.445312 49.84375 38.472656 C 52.128906 40.089844 57.699219 40.480469 59.839844 41.667969 L 59.929688 41.714844 C 61.03125 42.5625 61.371094 44.984375 60.867188 45.828125 Z M 25.148438 75.457031 C 23.722656 75.457031 22.550781 74.285156 22.550781 72.835938 C 22.550781 71.398438 23.707031 70.21875 25.148438 70.21875 L 42.75 70.21875 C 44.183594 70.21875 45.347656 71.390625 45.347656 72.835938 C 45.347656 74.285156 44.191406 75.457031 42.75 75.457031 Z M 25.148438 59.089844 C 23.722656 59.089844 22.558594 57.933594 22.558594 56.503906 C 22.558594 55.082031 23.714844 53.917969 25.148438 53.917969 L 60.050781 53.917969 C 61.484375 53.917969 62.640625 55.074219 62.640625 56.503906 C 62.640625 57.933594 61.484375 59.089844 60.050781 59.089844 Z M 71.980469 73.835938 C 71.980469 72.59375 72.988281 71.585938 74.234375 71.585938 C 75.480469 71.585938 76.492188 72.59375 76.492188 73.835938 L 76.492188 79.699219 L 82.359375 79.699219 C 83.605469 79.699219 84.617188 80.707031 84.617188 81.953125 C 84.617188 83.195312 83.605469 84.203125 82.359375 84.203125 L 76.492188 84.203125 L 76.492188 90.066406 C 76.492188 91.308594 75.480469 92.316406 74.234375 92.316406 C 72.988281 92.316406 71.980469 91.308594 71.980469 90.066406 L 71.980469 84.203125 L 66.101562 84.203125 C 64.855469 84.203125 63.847656 83.195312 63.847656 81.953125 C 63.847656 80.707031 64.855469 79.699219 66.101562 79.699219 L 71.972656 79.699219 Z M 71.980469 73.835938 "/>
</g>
</svg>
