<?xml version="1.0" encoding="UTF-8"?><svg id="a" xmlns="http://www.w3.org/2000/svg" viewBox="0 0 100 100"><defs><style>.b{fill-rule:evenodd;}</style></defs><path class="b" d="m77.29,18.23l5.99,5.99c1.58,1.58,1.58,4.16,0,5.74l-4.83,4.83c1.33,2.49,2.35,5.17,2.99,7.99h6.25c2.23,0,4.06,1.83,4.06,4.06v8.48c0,2.23-1.83,4.06-4.06,4.06h-6.82c-.84,2.76-2.03,5.37-3.54,7.76l4.43,4.42c1.58,1.58,1.58,4.16,0,5.74l-5.99,5.99c-1.58,1.58-4.16,1.58-5.74,0l-4.83-4.83c-2.49,1.33-5.17,2.35-7.99,2.99v6.25c0,2.23-1.82,4.06-4.06,4.06h-8.48c-2.23,0-4.06-1.83-4.06-4.06v-6.82c-2.76-.84-5.37-2.03-7.76-3.54l-4.43,4.43c-1.58,1.58-4.16,1.58-5.74,0l-5.99-5.99c-1.58-1.58-1.58-4.16,0-5.74l4.83-4.83c-1.33-2.49-2.35-5.17-2.99-7.99h-6.25c-2.23,0-4.06-1.82-4.06-4.06v-8.48c0-2.23,1.83-4.06,4.06-4.06h6.82c.84-2.76,2.03-5.37,3.54-7.76l-4.43-4.42c-1.58-1.58-1.58-4.16,0-5.74l5.99-5.99c1.58-1.58,4.16-1.58,5.74,0l4.83,4.83c2.49-1.33,5.17-2.35,7.99-2.99v-6.25c0-2.23,1.83-4.06,4.06-4.06h8.48c2.23,0,4.06,1.83,4.06,4.06v6.82c2.76.84,5.37,2.03,7.76,3.54l4.42-4.42c1.58-1.58,4.16-1.58,5.74,0h0Zm-27.29,15.1c9.2,0,16.67,7.46,16.67,16.67s-7.46,16.67-16.67,16.67-16.67-7.46-16.67-16.67c0-9.2,7.46-16.67,16.67-16.67h0Z"/></svg>