<?xml version="1.0" encoding="utf-8"?>
<!-- Generator: Adobe Illustrator 27.3.1, SVG Export Plug-In . SVG Version: 6.00 Build 0)  -->
<svg version="1.1" id="Layer_1" xmlns="http://www.w3.org/2000/svg" xmlns:xlink="http://www.w3.org/1999/xlink" x="0px" y="0px"
	 viewBox="0 0 100 100" style="enable-background:new 0 0 100 100;" xml:space="preserve">
<style type="text/css">
	.st0{fill-rule:evenodd;clip-rule:evenodd;}
</style>
<g>
	<path class="st0" d="M77.6,72.1c3.1,4.1,5.7,7.5,7.1,11.4c1.4,3.8,2,5.5-1.2,1.6c-2.9-3.7-5.7-7.2-9.7-10.6
		c-0.3,0.1-0.6,0.1-0.9,0.2c-36.3,7.2-62.8-9.1-58.1-61.9c28,9.7,67.6,5.8,63.5,55.4C78.1,69.9,78,71.2,77.6,72.1L77.6,72.1z
		 M67.8,64.2c-9.1-19.7-32.6-26.4-44.2-39.9C36.2,48.9,43.1,47.9,67.8,64.2L67.8,64.2L67.8,64.2z"/>
</g>
</svg>
