<?xml version="1.0" encoding="utf-8"?>
<!-- Generator: Adobe Illustrator 27.3.1, SVG Export Plug-In . SVG Version: 6.00 Build 0)  -->
<svg version="1.1" id="Layer_1" xmlns="http://www.w3.org/2000/svg" xmlns:xlink="http://www.w3.org/1999/xlink" x="0px" y="0px"
	 viewBox="0 0 100 100" style="enable-background:new 0 0 100 100;" xml:space="preserve">
<style type="text/css">
	.st0{fill-rule:evenodd;clip-rule:evenodd;}
</style>
<g>
	<path class="st0" d="M60.8,70.8c-0.9,0.2-1.7-0.4-1.9-1.3c0-0.2,0-0.3,0-0.5l0.1-2.6c0-0.8,0.2-1.3,0.2-1.3
		c0.1-0.2,0.3-0.4,0.5-0.5l0.6-0.5C40.6,46,34.2,45.7,26.5,21.5c8.4,13.9,28.3,23.6,34,42.4L71.8,54C71.4,24.3,41,20.9,20.2,9.5
		c-5.2,19.8-4.4,34.7,0.7,45.2c0.6-0.3,1.2-0.6,1.9-0.8c0.9-0.3,1.8-0.4,2.8-0.4c1.7,0,3.5,0.5,5.2,1.3c2.7,1.3,5.3,3.6,7.5,6.6
		c2.1,2.8,3.8,5.9,4.8,9.3c0.2,0.7,0.4,1.5,0.6,2.2c4.6,1.3,9.6,2,15,2.2v-0.8c0-0.9,0.7-1.6,1.6-1.6c0.8-0.1,1.4-0.4,1.6-0.9
		c0-0.1,0.1-0.3,0-0.4c0-0.1-0.1-0.2-0.1-0.3C61.7,70.8,61.3,70.7,60.8,70.8z M73.2,84.9c-0.3-1.4-0.7-2.8-1.2-4.1l-3,0.3
		c1,1.7,1.9,3.3,2.9,5C74.1,90.3,73.9,88.6,73.2,84.9z"/>
</g>
<g>
	<path class="st0" d="M60,65.8L60,65.8C60,65.7,60,65.7,60,65.8c0.1-0.2,0.1-0.3,0.2-0.3L78,50c6.7,0.1,11.7,3,14.9,7.9
		C92.9,58,93,58,93,58.1l0,0l0,0h0c1.5,3.4,2.2,6.6,2.2,9.7c0,3.2-0.8,6.2-2,9.2c-0.1,0.2-0.3,0.3-0.5,0.4l0,0l-32.2,3.6
		c-0.3,0-0.6-0.2-0.7-0.5c0,0,0,0,0-0.1l0,0v-6.3c0-0.3,0.3-0.6,0.6-0.6c1.4-0.1,2.2-0.8,2.5-1.5c0.1-0.3,0.1-0.6,0.1-0.9
		c0-0.3-0.1-0.6-0.3-0.8c-0.4-0.5-1.1-0.8-2.1-0.6c-0.3,0.1-0.7-0.2-0.7-0.5c0-0.1,0-0.1,0-0.2l0.1-3.3C60,65.9,60,65.8,60,65.8
		L60,65.8z M65.8,74.5c0.9,0,1.6,0.7,1.6,1.6c0,0.9-0.7,1.6-1.6,1.6c-0.9,0-1.6-0.7-1.6-1.6C64.2,75.2,64.9,74.5,65.8,74.5
		L65.8,74.5z M79.2,62.1c0.7,0.6,1.2,1.5,1.2,2.5c0,1.8-1.5,3.3-3.3,3.3s-3.3-1.5-3.3-3.3c0-0.5,0.1-0.9,0.3-1.4l-13,3.1l-0.1,2.1
		c1.1,0,2,0.5,2.5,1.2c0.3,0.4,0.5,0.9,0.5,1.4c0.1,0.5,0,1-0.2,1.5c-0.4,1-1.4,1.9-3,2.2v5l31.2-3.5c1.1-2.7,1.8-5.5,1.8-8.4
		c0-2.8-0.6-5.8-1.9-8.8L79.2,62.1L79.2,62.1z M87.4,63.5c1.6,0,2.9,1.3,2.9,2.9c0,1.6-1.3,2.9-2.9,2.9c-1.6,0-2.9-1.3-2.9-2.9
		C84.5,64.8,85.8,63.5,87.4,63.5L87.4,63.5z M83.9,72.2c1,0,1.8,0.8,1.8,1.8c0,1-0.8,1.8-1.8,1.8c-1,0-1.8-0.8-1.8-1.8
		C82.1,73,82.9,72.2,83.9,72.2L83.9,72.2z M71.6,67.5c0.9,0,1.6,0.7,1.6,1.6c0,0.9-0.7,1.6-1.6,1.6c-0.9,0-1.6-0.7-1.6-1.6
		S70.7,67.5,71.6,67.5L71.6,67.5z M73.7,72.2c1.4,0,2.5,1.1,2.5,2.5c0,1.4-1.1,2.5-2.5,2.5s-2.5-1.1-2.5-2.5S72.3,72.2,73.7,72.2
		L73.7,72.2z"/>
</g>
<path d="M29.9,56.6c2.5,1.2,4.8,3.4,6.8,6c2,2.6,3.5,5.6,4.5,8.7c1.2,3.8,1.3,7.6-0.2,10.6c-0.1,0.3-0.3,0.6-0.5,0.8
	c-1.7,2.7-4.6,4.7-7.9,5.6c-3.3,0.9-6.9,0.8-9.9-0.7c-0.3-0.1-0.6-0.3-0.9-0.5c-2.3-1.5-4.1-4.3-5.1-7.7c-1-3.3-1.4-6.7-1.2-10.1
	c0.2-3.5,1-6.8,2.6-9.3c1.2-2,2.9-3.5,5.1-4.2C25.5,55.1,27.8,55.5,29.9,56.6z M22.7,78.1c0.4,0.8,0.9,1.6,1.5,2.3
	c0.5,0.6,1,1.1,1.7,1.5c0.5,0.3,1.1,0.6,1.7,0.8c0.6,0.2,1.3,0.4,1.9,0.5c0,0,0.1,0,0.1,0c0.4,0.1,0.7,0.6,0.6,1
	c-0.1,0.5-0.6,0.8-1.1,0.7c-0.8-0.1-1.6-0.3-2.3-0.6c-0.7-0.3-1.4-0.6-2.1-1c-0.8-0.5-1.5-1.1-2.1-1.8c-0.7-0.8-1.2-1.7-1.7-2.6
	c0,0,0,0,0,0c-0.2-0.5,0-1,0.5-1.2C21.9,77.5,22.5,77.7,22.7,78.1L22.7,78.1z M17.7,69.2c-0.2,3.2,0.2,6.4,1.1,9.5
	c0.9,3,2.4,5.5,4.3,6.7c0.2,0.1,0.5,0.3,0.7,0.4c2.5,1.3,5.6,1.4,8.4,0.6s5.3-2.4,6.7-4.6c0.1-0.2,0.3-0.4,0.4-0.6
	c1.3-2.5,1.1-5.9,0-9.3c-0.9-2.9-2.4-5.7-4.2-8.2c-1.8-2.4-4-4.4-6.2-5.5c-1.7-0.8-3.4-1.1-4.9-0.7c-1.6,0.5-2.9,1.7-3.9,3.2
	C18.7,63.1,17.9,66.1,17.7,69.2z"/>
</svg>
